<svg xmlns="http://www.w3.org/2000/svg" viewBox="0 0 612 158.3"><path fill="#A3C63A" d="M102 15.8c.1.5.1.8.1 1.1 0 30.2.2 60.4-.1 90.6-.1 12-4.3 22.6-14.3 30.1-7.1 5.4-15.4 7.9-24.1 9-15.2 1.9-30.2 1.1-45-3.1-1.6-.5-2.3-1.1-2.2-2.9.1-5.8 0-11.6 0-17.5 4.3 1 8.4 2.1 12.6 2.8 10.3 1.7 20.7 2.8 31 .6 10.6-2.2 16.4-9.3 16.7-20.2 0-.3-.1-.6-.2-1.3-.9.3-1.7.5-2.4.8-11.7 4.2-23.7 4.8-35.8 2.2-14.9-3.3-24.2-12.6-28-27.3-3.2-12.1-3.4-24.3-.6-36.5 4.1-17.2 15.5-27 32.4-30.8 10-2.2 20.1-2.2 30.1-1.3 9.5.8 18.9 2.2 28.4 3.3.4.1.8.3 1.4.4zM76.8 59c0-7.5-.1-15 0-22.5 0-1.9-.7-2.6-2.4-3-7-1.6-14.1-2-21.1-1.1C44.4 33.5 37.8 38.3 35 47c-3 9.5-3 19.1.3 28.6 2.6 7.4 8 11.5 15.7 12.6 8.3 1.1 16.1-.6 23.7-3.8 1.6-.7 2.1-1.5 2.1-3.2-.1-7.4 0-14.8 0-22.2z"/><path fill="#9D9B9D" d="M504.7 15.9V18c0 29.3.1 58.5-.1 87.8 0 8.5-2 16.7-7 23.9-5.8 8.2-13.9 12.9-23.5 15.2-17.5 4.1-35 3.3-52.3-1.4-1.8-.5-2.7-1.3-2.6-3.4.2-4.7.1-9.5.1-14.2v-2.3c6.9 1.2 13.5 2.7 20.2 3.4 8.4.9 16.8 1.4 25.1-.9 9.9-2.7 15.4-10.6 14.6-21.3-2 .7-4 1.4-6 2-11.6 3.3-23.3 3.6-34.9.4C427.1 104 419 96.9 414.9 86c-5.5-14.6-5.8-29.6-1.5-44.5 4.4-15.1 14.9-23.8 29.9-27.5 10.4-2.6 21-2.6 31.7-1.6 8.8.9 17.5 1.9 26.2 2.9 1.1.2 2.2.4 3.5.6zm-25.2 42.9s.1 0 0 0c0-7.5 0-15 .1-22.5 0-1.7-.6-2.4-2.1-2.7-6.9-1.7-13.9-2-20.9-1.3-9.8 1.1-16.6 6.2-19.3 15.8-2.6 9.1-2.5 18.4.6 27.4 2.5 7.3 7.8 11.5 15.4 12.6 8.4 1.2 16.4-.5 24.2-3.7 1.6-.7 2.1-1.5 2.1-3.2-.1-7.4-.1-14.9-.1-22.4z"/><path fill="#A3C63A" d="M240.8 63.7C229.1 73.9 218 83.5 207 93.2c-6.5 5.7-13 11.5-20.9 15.4-13.5 6.7-27.6 8.8-41.8 3.1-18.7-7.6-30.8-21.4-34.1-41.5-3.3-20.3 3.7-37.3 19.6-50.3 10.2-8.3 21.9-12.4 35.1-11.6 12.2.7 22.8 5.5 32 13.2 5.8 4.9 11 10.4 16.4 15.7 8.4 8.2 16.7 16.6 25 24.8.8.6 1.5 1 2.5 1.7zm-78-32.4c-17.1 0-30.6 13.4-30.6 30.4 0 16.7 13.6 30.3 30.5 30.3 16.8 0 30.6-13.7 30.5-30.3 0-16.8-13.6-30.4-30.4-30.4z"/><path fill="#9D9B9D" d="M322.2 36V16.1c8-1.2 15.9-2.8 23.9-3.6 6.3-.6 12.7-.7 19.1-.4 9.4.5 18.6 2.2 26.5 8 7 5.1 10.8 12.2 10.9 20.5.4 23.2.3 46.5.4 69.8 0 .2-.1.4-.2.9h-13.6c-.6 0-1.2-.6-1.7-1-2.2-2.1-4.4-4.3-6.5-6.5-1.1-1.2-2-1.2-3.2-.3-9.6 6.2-20.2 8.6-31.5 7.9-6.6-.4-13.1-1.6-19-4.9-8.2-4.6-11.9-11.9-13-20.7-.7-5.4-.4-10.9 1.6-16 3.1-8.2 9.6-12.8 17.6-15.5 10.6-3.5 21.5-3.7 32.4-2.8 3.9.3 7.8.8 12 1.3 0-4.6.9-9.2-1.3-13.5-2.4-4.9-7.1-6.4-12.1-7-9.5-1.1-19 0-28.4 1.5-4.6.4-9.2 1.3-13.9 2.2zm55.6 41.8c0-2.1-.1-4.3 0-6.4.1-1.5-.5-2.1-2-2.2-3.4-.4-6.7-1.2-10.1-1.2-5.9 0-11.8-.1-17.6.9-6.7 1.1-9.4 5.6-9.1 12.8.3 6.1 3.9 10.2 10.1 11.2 8.8 1.5 17-.6 24.8-4.8 2.9-1.5 4.5-3.4 3.9-6.8-.2-1.1 0-2.3 0-3.5zm158.9-7.5c-.9 8 4 15.2 12.2 18.4 7.1 2.7 14.4 3.2 21.8 2.8 9-.5 18-1.4 27.1-2.1v19.2c-4.6.6-9.3 1.5-14 1.8-7.4.5-14.8.9-22.2.7-8.8-.2-17.4-1.7-25.4-5.3-12.2-5.5-19.6-15.1-22.7-27.9-3-12.5-3-25.1.6-37.5 5-17.3 17.2-25.8 34.5-28 9.3-1.2 18.5-1 27.6 1.6 15 4.3 23.4 14.6 26.4 29.6 1.7 8.3 1.8 16.7.6 25.1-.1.6-.9 1.2-1.5 1.5-.5.2-1.2.1-1.9.1h-63.1zm43.1-17.6c-.6-3.4-.9-6.6-1.7-9.5-1.5-5.1-4.9-8.6-10-10.3-6-2-12-2.1-18.1-.3-7.9 2.3-13.4 10.8-12.9 20.1h42.7zm-338.1 54.1v40.4H217c0-.9-.1-1.6-.1-2.4 0-11.7 0-23.5.1-35.2 0-1.1.5-2.5 1.3-3.2 7.3-6.5 14.7-12.8 22-19.3 1.3-1.1 2.2-1.2 3.7-.5 7 3.4 14.5 4.8 22.2 3.9 7.5-.9 12.9-5 15.6-12.1 4-10.2 4.4-20.8 1.7-31.3-2.2-8.4-9.3-13.9-18.3-14.8-9.4-.9-18.7-.3-27.9 1.3-1.9.3-3.1-.1-4.5-1.5-4.7-4.8-9.5-9.4-14.3-14.1-.5-.5-1-1.1-2-2.1 5.4-.9 10.3-1.9 15.3-2.3 9.6-.8 19.1-1.4 28.7-1.6 8.3-.2 16.5 1.1 24.2 4.2 11.7 4.7 19.5 13.1 22.8 25.3 3.8 14.4 3.2 28.7-1.5 42.8-4.7 14.1-14.8 22.5-29.2 25.7-11.2 2.4-22.2 2.2-32.8-2.5-.6-.4-1.3-.5-2.3-.7z"/><path fill="#F79122" d="M162.6 79.7c-10.1-.1-18.1-8.1-18.1-18.2 0-10 8.2-18 18.3-18 9.9 0 18.2 8.3 18.1 18.3 0 9.9-8.2 18-18.3 17.9z"/></svg>